<?xml version="1.0" standalone="no"?>
<!DOCTYPE svg PUBLIC "-//W3C//DTD SVG 20010904//EN"
 "http://www.w3.org/TR/2001/REC-SVG-20010904/DTD/svg10.dtd">
<svg version="1.0" xmlns="http://www.w3.org/2000/svg"
 width="70.000000pt" height="70.000000pt" viewBox="0 0 70.000000 70.000000"
 preserveAspectRatio="xMidYMid meet">
<metadata>
Created by potrace 1.11, written by Peter Selinger 2001-2013
</metadata>
<g transform="translate(0.000000,70.000000) scale(0.100000,-0.100000)"
fill="#000000" stroke="none">
<path d="M163 497 c-14 -23 -110 -297 -105 -302 3 -3 20 -5 38 -5 28 0 34 5
44 35 11 34 13 35 65 35 52 0 54 -1 65 -35 10 -30 16 -35 44 -35 18 0 35 2 38
5 5 5 -83 265 -100 294 -8 15 -81 21 -89 8z m71 -154 c7 -21 4 -23 -29 -23
-28 0 -36 4 -32 14 3 8 11 33 18 56 l13 42 12 -33 c6 -19 14 -44 18 -56z"/>
<path d="M394 501 c-2 -2 -4 -73 -4 -158 l0 -153 35 0 35 0 0 61 c0 57 1 60
22 57 15 -2 34 -22 56 -60 32 -55 36 -58 73 -58 22 0 39 2 39 5 0 9 -52 88
-74 113 l-21 23 21 17 c24 19 44 53 44 76 0 8 -11 28 -25 45 -24 28 -30 30
-111 33 -47 2 -88 1 -90 -1z m140 -73 c16 -26 -4 -52 -43 -56 -30 -3 -31 -2
-31 38 0 40 1 41 31 38 18 -2 37 -11 43 -20z"/>
</g>
</svg>
